<?xml version="1.0" encoding="UTF-8" standalone="no" ?>
<!DOCTYPE svg PUBLIC "-//W3C//DTD SVG 1.1//EN" "http://www.w3.org/Graphics/SVG/1.1/DTD/svg11.dtd">
<svg xmlns="http://www.w3.org/2000/svg" xmlns:xlink="http://www.w3.org/1999/xlink" version="1.1" width="1280" height="1024" viewBox="0 0 1280 1024" xml:space="preserve">
<desc>Created with Fabric.js 5.3.0</desc>
<defs>
</defs>
<g transform="matrix(1 0 0 1 640 512)" id="background-logo"  >
<rect style="stroke: none; stroke-width: 0; stroke-dasharray: none; stroke-linecap: butt; stroke-dashoffset: 0; stroke-linejoin: miter; stroke-miterlimit: 4; fill: rgb(19,13,55); fill-rule: nonzero; opacity: 1;"  paint-order="stroke"  x="-640" y="-512" rx="0" ry="0" width="1280" height="1024" />
</g>
<g transform="matrix(1.9211538461538462 0 0 1.9211538461538462 640 417.29053862948376)" id="logo-logo"  >
<g style=""  paint-order="stroke"   >
		<g transform="matrix(0.25584671823672434 0 0 0.25584671823672434 0 0)"  >
<linearGradient id="SVGID_1_1241483" gradientUnits="userSpaceOnUse" gradientTransform="matrix(1 0 0 1 0 0)"  x1="846.8792114" y1="221.8557587" x2="204.980545" y2="803.0181885">
<stop offset="4.993059e-7%" style="stop-color:rgb(34,108,255);stop-opacity: 1"/>
<stop offset="5.51286%" style="stop-color:rgb(43,107,254);stop-opacity: 1"/>
<stop offset="35.71683%" style="stop-color:rgb(89,101,250);stop-opacity: 1"/>
<stop offset="62.61193%" style="stop-color:rgb(122,97,247);stop-opacity: 1"/>
<stop offset="84.95665%" style="stop-color:rgb(142,94,245);stop-opacity: 1"/>
<stop offset="100%" style="stop-color:rgb(149,93,244);stop-opacity: 1"/>
</linearGradient>
<path style="stroke: none; stroke-width: 1; stroke-dasharray: none; stroke-linecap: butt; stroke-dashoffset: 0; stroke-linejoin: miter; stroke-miterlimit: 4; fill: url(#SVGID_1_1241483); fill-rule: nonzero; opacity: 1;"  paint-order="stroke"  transform=" translate(-501.2865676999999, -536.7309342000001)" d="M 683.5123901 641.9360352 L 638.5944824 667.8699952 L 638.5944824 641.5396119 L 319.0607605 456.9932861 L 319.0607605 431.5257873 L 361.7164917 406.8978576 L 363.9787903 405.5918578 L 363.9787903 427.4911498 L 683.5123902 612.3638915 L 683.5123902 641.9360352 z M 398.9617004 275.7354431 L 501.27496329999997 216.66098019999998 L 603.6115722 275.7354431 L 603.6115722 343.5322571 L 501.48477169999995 286.18362429999996 L 501.15823359999996 285.99697879999997 L 399.03158569999994 344.9548645 C 398.98489379999995 344.97821039999997 398.9617003999999 345.0014038 398.9617003999999 345.0014038 L 398.9617003999999 275.7354431 z M 664.295166 270.3712769 L 664.295166 310.7648621 L 778.4793091 376.6959534 L 778.4793091 626.8935547 L 718.4953003 592.1904906999999 L 718.4953003 411.328949 L 664.2951660000001 380.03097540000005 L 664.2951660000001 420.42456060000006 L 683.5123901000001 431.52578740000007 L 683.5123901000001 571.9469605 L 398.9617004 407.317627 L 398.9617004 385.394989 L 501.4148864 326.2506409 L 638.5010986 403.2596436 L 638.5944824 403.3062134 L 638.5944824 255.5385742 L 638.5010986 255.4920349 L 501.27496329999997 176.2674103 L 363.97879019999993 255.5385742 L 363.97879019999993 365.1982727 L 284.07788079999995 411.328949 L 284.07788079999995 436.79656980000004 L 189.11091609999994 381.94338990000006 L 189.11091609999994 716.9627686000001 L 337.0418701 802.3676148000001 L 337.0418701 761.973999 L 224.09379579999998 696.7658691 L 224.09379579999998 442.5570068 L 284.07788089999997 477.190155 L 284.07788089999997 662.1329345 L 336.97198489999994 692.6611938 L 337.04187019999995 692.5446167 L 337.04187019999995 652.3143311 L 319.0607605999999 641.9360352 L 319.0607605999999 497.3868713 L 603.6115723999999 661.7131347 L 603.6115723999999 688.0668945 L 501.2749634999999 747.1412964 L 462.2806397999999 724.6122437 L 363.9787903999999 667.8699952000001 L 363.9787903999999 817.9232789 L 501.2749634999999 897.1944581 L 638.5944824999999 817.9232789 L 638.5944824999999 708.2636109 L 718.4953003999999 662.1329346 L 718.4953003999999 632.6072998 C 718.5419312999999 632.6072998 718.5653077 632.6306152 718.6119995999999 632.6773071 L 813.4622192999999 687.5537109 L 813.4622192999999 356.4992371 L 664.295166 270.3712769 z M 603.6115723 797.7265625 L 501.27496340000005 856.8008423 L 398.96170050000006 797.7265625 L 398.96170050000006 728.4604492 L 446.3984070000001 755.840332 L 501.27496340000005 787.534729 L 603.6115723 728.4604492 L 603.6115723 797.7265625 z" stroke-linecap="round" />
</g>
		<g transform="matrix(0.25584671823672434 0 0 0.25584671823672434 -51.09700222022326 2.777580030039246)"  >
<linearGradient id="SVGID_2_1241484" gradientUnits="userSpaceOnUse" gradientTransform="matrix(1 0 0 1 -301.56932070000005 -547.58735655)"  x1="301.5693054" y1="660.1853027" x2="301.5693054" y2="425.1797791">
<stop offset="9.12162%" style="stop-color:rgb(34,108,255);stop-opacity: 0"/>
<stop offset="80.91216%" style="stop-color:rgb(38,34,98);stop-opacity: 1"/>
</linearGradient>
<polygon style="stroke: none; stroke-width: 1; stroke-dasharray: none; stroke-linecap: butt; stroke-dashoffset: 0; stroke-linejoin: miter; stroke-miterlimit: 4; fill: url(#SVGID_2_1241484); fill-rule: nonzero; opacity: 1;"  paint-order="stroke"  points="17.491439799999966,-50.200485249999986 17.491439799999966,45.02293395000004 -17.491439800000023,70.39720154999998 -17.491439800000023,-70.39720154999998 " />
</g>
		<g transform="matrix(0.25584671823672434 0 0 0.25584671823672434 -45.35093696322855 -32.143342050742916)"  >
<linearGradient id="SVGID_3_1241485" gradientUnits="userSpaceOnUse" gradientTransform="matrix(1 0 0 1 -324.0283356 -411.09577939999997)"  x1="223.457428" y1="497.2583618" x2="396.9328308" y2="357.1283569">
<stop offset="0%" style="stop-color:rgb(34,108,255);stop-opacity: 0"/>
<stop offset="95.02532000000001%" style="stop-color:rgb(38,34,98);stop-opacity: 1"/>
</linearGradient>
<polygon style="stroke: none; stroke-width: 1; stroke-dasharray: none; stroke-linecap: butt; stroke-dashoffset: 0; stroke-linejoin: miter; stroke-miterlimit: 4; fill: url(#SVGID_3_1241485); fill-rule: nonzero; opacity: 1;"  paint-order="stroke"  points="39.95045470000002,-45.89750669999995 39.95045470000002,-6.85664369999995 37.688156100000015,-4.197921699999995 -4.967575099999976,20.430008000000043 -4.967575099999976,45.89750670000001 -39.950454699999966,25.700790400000017 -39.950454699999966,0.23316960000005338 " />
</g>
		<g transform="matrix(0.25584671823672434 0 0 0.25584671823672434 45.35096038599568 31.618258172691924)"  >
<linearGradient id="SVGID_4_1241486" gradientUnits="userSpaceOnUse" gradientTransform="matrix(1 0 0 1 0 0)"  x1="826.8562622" y1="545.6384888" x2="602.171875" y2="709.1896973">
<stop offset="0%" style="stop-color:rgb(34,108,255);stop-opacity: 0"/>
<stop offset="95.02532000000001%" style="stop-color:rgb(38,34,98);stop-opacity: 1"/>
</linearGradient>
<path style="stroke: none; stroke-width: 1; stroke-dasharray: none; stroke-linecap: butt; stroke-dashoffset: 0; stroke-linejoin: miter; stroke-miterlimit: 4; fill: url(#SVGID_4_1241486); fill-rule: nonzero; opacity: 1;"  paint-order="stroke"  transform=" translate(-678.5448913500001, -660.31375125)" d="M 718.4953003 632.6072998 L 718.4953003 662.1329346 L 638.5944824000001 708.2636109 L 638.5944824000001 667.8699952 L 683.5123901000001 641.9360352 L 683.5123901000001 612.3638916 C 683.5123901 612.3638916 716.5596313 632.0009155 718.4953003 632.6072998 z" stroke-linecap="round" />
</g>
		<g transform="matrix(0.25584671823672434 0 0 0.25584671823672434 51.097010023548194 -3.0311468981698795)"  >
<linearGradient id="SVGID_5_1241487" gradientUnits="userSpaceOnUse" gradientTransform="matrix(1 0 0 1 -701.0038452 -524.88342285)"  x1="699.6876831" y1="412.2782288" x2="702.664978" y2="661.1776123">
<stop offset="20.5655%" style="stop-color:rgb(34,108,255);stop-opacity: 0"/>
<stop offset="77.52091%" style="stop-color:rgb(38,34,98);stop-opacity: 1"/>
</linearGradient>
<polygon style="stroke: none; stroke-width: 1; stroke-dasharray: none; stroke-linecap: butt; stroke-dashoffset: 0; stroke-linejoin: miter; stroke-miterlimit: 4; fill: url(#SVGID_5_1241487); fill-rule: nonzero; opacity: 1;"  paint-order="stroke"  points="17.491455100000053,-52.21774295 17.491455100000053,67.30706785000007 -17.491455100000053,47.06353754999998 -17.491455100000053,-67.30706785000001 " />
</g>
		<g transform="matrix(0.25584671823672434 0 0 0.25584671823672434 45.35096038599568 31.618258172691924)"  >
<linearGradient id="SVGID_6_1241488" gradientUnits="userSpaceOnUse" gradientTransform="matrix(1 0 0 1 0 0)"  x1="743.4456177" y1="610.7818604" x2="607.1052246" y2="695.8031616">
<stop offset="0%" style="stop-color:rgb(34,108,255);stop-opacity: 0"/>
<stop offset="95.02532000000001%" style="stop-color:rgb(38,34,98);stop-opacity: 1"/>
</linearGradient>
<path style="stroke: none; stroke-width: 1; stroke-dasharray: none; stroke-linecap: butt; stroke-dashoffset: 0; stroke-linejoin: miter; stroke-miterlimit: 4; fill: url(#SVGID_6_1241488); fill-rule: nonzero; opacity: 1;"  paint-order="stroke"  transform=" translate(-678.5448913500001, -660.31375125)" d="M 718.4953003 632.6072998 L 718.4953003 662.1329346 L 638.5944824000001 708.2636109 L 638.5944824000001 667.8699952 L 683.5123901000001 641.9360352 L 683.5123901000001 612.3638916 C 683.5123901 612.3638916 716.5596313 632.0009155 718.4953003 632.6072998 z" stroke-linecap="round" />
</g>
		<g transform="matrix(0.25584671823672434 0 0 0.25584671823672434 -13.061981072021752 -51.43413228513802)"  >
<linearGradient id="SVGID_7_1241489" gradientUnits="userSpaceOnUse" gradientTransform="matrix(1 0 0 1 0 0)"  x1="524.0770874" y1="295.7745056" x2="293.3388977" y2="420.2242432">
<stop offset="9.12162%" style="stop-color:rgb(34,108,255);stop-opacity: 0"/>
<stop offset="23.63618%" style="stop-color:rgb(35,88,213);stop-opacity: 0.2278288"/>
<stop offset="46.867760000000004%" style="stop-color:rgb(37,59,151);stop-opacity: 0.5924851"/>
<stop offset="63.92143%" style="stop-color:rgb(38,41,113);stop-opacity: 0.8601693"/>
<stop offset="72.82978%" style="stop-color:rgb(38,34,98);stop-opacity: 1"/>
</linearGradient>
<path style="stroke: none; stroke-width: 1; stroke-dasharray: none; stroke-linecap: butt; stroke-dashoffset: 0; stroke-linejoin: miter; stroke-miterlimit: 4; fill: url(#SVGID_7_1241489); fill-rule: nonzero; opacity: 1;"  paint-order="stroke"  transform=" translate(-450.2326352437077, -335.6959839)" d="M 501.4148865 326.2506409 L 398.9617005 385.394989 L 398.9617005 345.0014038 C 398.9617005 345.0014038 398.98489390000003 344.97821039999997 399.0315858 344.9548645 L 501.1582337 285.99697879999997 L 501.4847718 286.18362429999996 C 501.5314636 297.0982361 501.4847717 312.7938538 501.4148865 326.2506409 z" stroke-linecap="round" />
</g>
		<g transform="matrix(0.25584671823672434 0 0 0.25584671823672434 6.068280417661413 51.44306830742744)"  >
<linearGradient id="SVGID_8_1241490" gradientUnits="userSpaceOnUse" gradientTransform="matrix(1 0 0 1 -525.00498965 -737.80081175)"  x1="445.1534729" y1="778.5352783" x2="640.8591309" y2="662.6203003">
<stop offset="9.12162%" style="stop-color:rgb(34,108,255);stop-opacity: 0"/>
<stop offset="27.796290000000003%" style="stop-color:rgb(35,88,213);stop-opacity: 0.2278288"/>
<stop offset="57.686420000000005%" style="stop-color:rgb(37,59,151);stop-opacity: 0.5924851"/>
<stop offset="79.62796%" style="stop-color:rgb(38,41,113);stop-opacity: 0.8601693"/>
<stop offset="91.0896%" style="stop-color:rgb(38,34,98);stop-opacity: 1"/>
</linearGradient>
<polygon style="stroke: none; stroke-width: 1; stroke-dasharray: none; stroke-linecap: butt; stroke-dashoffset: 0; stroke-linejoin: miter; stroke-miterlimit: 4; fill: url(#SVGID_8_1241490); fill-rule: nonzero; opacity: 1;"  paint-order="stroke"  points="78.60658265000006,-49.73391724999999 78.60658265000006,-9.340362550000009 -23.73002624999998,49.73391724999999 -78.60658264999995,18.03952025000001 -62.72435005,-13.188568049999958 -23.73002624999998,9.340484650000008 " />
</g>
</g>
</g>
<g transform="matrix(1.9211538461538462 0 0 1.9211538461538462 640.8145692307693 670.5972504203007)" id="text-logo"  >
<g style=""  paint-order="stroke"   >
		<g transform="matrix(1 0 0 1 0 0)" id="text-logo-path-0"  >
<path style="stroke: none; stroke-width: 0; stroke-dasharray: none; stroke-linecap: butt; stroke-dashoffset: 0; stroke-linejoin: miter; stroke-miterlimit: 4; fill: rgb(108,100,252); fill-rule: nonzero; opacity: 1;"  paint-order="stroke"  transform=" translate(-215.30999999999997, 17.275)" d="M 14.63 0.64 L 14.63 0.64 Q 11.24 0.64 7.84 -0.64 Q 4.45 -1.91 1.85 -4.35 L 1.85 -4.35 L 6.31 -9.7 Q 8.16 -8.11 10.44 -7.1 Q 12.72 -6.09 14.84 -6.09 L 14.84 -6.09 Q 19.66 -6.09 19.66 -9.43 L 19.66 -9.43 Q 19.66 -11.08 18.31 -11.85 Q 16.96 -12.61 14.68 -13.57 L 14.68 -13.57 L 10.18 -15.48 Q 7.53 -16.54 5.38 -18.84 Q 3.23 -21.15 3.23 -24.91 L 3.23 -24.91 Q 3.23 -29.2 6.68 -32.2 Q 10.12 -35.19 15.53 -35.19 L 15.53 -35.19 Q 18.5 -35.19 21.46 -34.03 Q 24.43 -32.86 26.66 -30.63 L 26.66 -30.63 L 22.68 -25.7 Q 20.99 -27.03 19.29 -27.75 Q 17.6 -28.46 15.53 -28.46 L 15.53 -28.46 Q 13.51 -28.46 12.32 -27.64 Q 11.13 -26.82 11.13 -25.33 L 11.13 -25.33 Q 11.13 -23.74 12.64 -22.95 Q 14.15 -22.15 16.38 -21.25 L 16.38 -21.25 L 20.83 -19.45 Q 23.96 -18.18 25.81 -15.95 Q 27.67 -13.73 27.67 -10.07 L 27.67 -10.07 Q 27.67 -5.78 24.25 -2.57 Q 20.83 0.64 14.63 0.64 Z M 64.39 0 L 42.24 0 L 42.24 -34.56 L 63.86 -34.56 L 63.86 -27.98 L 50.03 -27.98 L 50.03 -21.04 L 61.8 -21.04 L 61.8 -14.52 L 50.03 -14.52 L 50.03 -6.57 L 64.39 -6.57 L 64.39 0 Z M 87.77 -28.36 L 87.77 -18.66 L 91.8 -18.66 Q 98.1 -18.66 98.1 -23.8 L 98.1 -23.8 Q 98.1 -26.34 96.49 -27.35 Q 94.87 -28.36 91.8 -28.36 L 91.8 -28.36 L 87.77 -28.36 Z M 87.77 -12.46 L 87.77 0 L 79.98 0 L 79.98 -34.56 L 92.43 -34.56 Q 97.94 -34.56 101.84 -32.25 Q 105.73 -29.95 105.73 -23.8 L 105.73 -23.8 Q 105.73 -19.98 104.04 -17.54 Q 102.34 -15.11 99.59 -13.83 L 99.59 -13.83 L 107.43 0 L 98.69 0 L 92.06 -12.46 L 87.77 -12.46 Z M 135.84 0 L 126.46 0 L 116.02 -34.56 L 124.29 -34.56 L 128.42 -18.44 Q 129.21 -15.63 129.82 -12.93 Q 130.43 -10.23 131.23 -7.37 L 131.23 -7.37 L 131.44 -7.37 Q 132.18 -10.23 132.82 -12.93 Q 133.45 -15.63 134.2 -18.44 L 134.2 -18.44 L 138.28 -34.56 L 146.23 -34.56 L 135.84 0 Z M 180.78 0 L 158.63 0 L 158.63 -34.56 L 180.25 -34.56 L 180.25 -27.98 L 166.42 -27.98 L 166.42 -21.04 L 178.19 -21.04 L 178.19 -14.52 L 166.42 -14.52 L 166.42 -6.57 L 180.78 -6.57 L 180.78 0 Z M 204.16 -28.36 L 204.16 -18.66 L 208.18 -18.66 Q 214.49 -18.66 214.49 -23.8 L 214.49 -23.8 Q 214.49 -26.34 212.87 -27.35 Q 211.26 -28.36 208.18 -28.36 L 208.18 -28.36 L 204.16 -28.36 Z M 204.16 -12.46 L 204.16 0 L 196.37 0 L 196.37 -34.56 L 208.82 -34.56 Q 214.33 -34.56 218.23 -32.25 Q 222.12 -29.95 222.12 -23.8 L 222.12 -23.8 Q 222.12 -19.98 220.43 -17.54 Q 218.73 -15.11 215.98 -13.83 L 215.98 -13.83 L 223.82 0 L 215.07 0 L 208.45 -12.46 L 204.16 -12.46 Z M 278.3 0 L 256.84 0 L 256.84 -34.56 L 264.63 -34.56 L 264.63 -6.57 L 278.3 -6.57 L 278.3 0 Z M 305.12 0.64 L 305.12 0.64 Q 298.13 0.64 293.78 -4.16 Q 289.43 -8.96 289.43 -17.44 L 289.43 -17.44 Q 289.43 -25.92 293.78 -30.55 Q 298.13 -35.19 305.12 -35.19 L 305.12 -35.19 Q 312.12 -35.19 316.46 -30.53 Q 320.81 -25.86 320.81 -17.44 L 320.81 -17.44 Q 320.81 -8.96 316.46 -4.16 Q 312.12 0.64 305.12 0.64 Z M 305.12 -6.09 L 305.12 -6.09 Q 308.67 -6.09 310.74 -9.17 Q 312.81 -12.24 312.81 -17.44 L 312.81 -17.44 Q 312.81 -22.58 310.74 -25.52 Q 308.67 -28.46 305.12 -28.46 L 305.12 -28.46 Q 301.57 -28.46 299.5 -25.52 Q 297.44 -22.58 297.44 -17.44 L 297.44 -17.44 Q 297.44 -12.24 299.5 -9.17 Q 301.57 -6.09 305.12 -6.09 Z M 351.28 0.64 L 351.28 0.64 Q 344.18 0.64 339.28 -3.87 Q 334.38 -8.37 334.38 -17.07 L 334.38 -17.07 Q 334.38 -22.79 336.66 -26.84 Q 338.94 -30.9 342.78 -33.05 Q 346.62 -35.19 351.23 -35.19 L 351.23 -35.19 Q 354.94 -35.19 357.67 -33.81 Q 360.4 -32.44 362.1 -30.69 L 362.1 -30.69 L 358.02 -25.7 Q 356.69 -26.87 355.21 -27.67 Q 353.72 -28.46 351.5 -28.46 L 351.5 -28.46 Q 347.47 -28.46 344.92 -25.49 Q 342.38 -22.52 342.38 -17.33 L 342.38 -17.33 Q 342.38 -11.98 344.79 -9.04 Q 347.2 -6.09 352.08 -6.09 L 352.08 -6.09 Q 354.46 -6.09 355.79 -7.15 L 355.79 -7.15 L 355.79 -13.09 L 350.06 -13.09 L 350.06 -19.45 L 362.68 -19.45 L 362.68 -3.55 Q 360.88 -1.8 357.88 -0.58 Q 354.89 0.64 351.28 0.64 Z M 386.32 0 L 378.53 0 L 378.53 -34.56 L 386.32 -34.56 L 386.32 0 Z M 417.59 0.64 L 417.59 0.64 Q 413.19 0.64 409.56 -1.38 Q 405.93 -3.39 403.73 -7.31 Q 401.53 -11.24 401.53 -17.07 L 401.53 -17.07 Q 401.53 -22.79 403.78 -26.84 Q 406.03 -30.9 409.77 -33.05 Q 413.51 -35.19 417.85 -35.19 L 417.85 -35.19 Q 421.19 -35.19 423.84 -33.84 Q 426.49 -32.49 428.24 -30.69 L 428.24 -30.69 L 424.11 -25.7 Q 422.78 -26.92 421.32 -27.69 Q 419.87 -28.46 418.01 -28.46 L 418.01 -28.46 Q 414.46 -28.46 412 -25.49 Q 409.53 -22.52 409.53 -17.33 L 409.53 -17.33 Q 409.53 -11.98 411.81 -9.04 Q 414.09 -6.09 417.91 -6.09 L 417.91 -6.09 Q 420.03 -6.09 421.69 -7.02 Q 423.36 -7.95 424.64 -9.33 L 424.64 -9.33 L 428.77 -4.45 Q 424.42 0.64 417.59 0.64 Z" stroke-linecap="round" />
</g>
</g>
</g>
</svg>